<mxfile host="app.diagrams.net" modified="2023-10-29T08:45:45.954Z" agent="Mozilla/5.0 (Windows NT 10.0; Win64; x64) AppleWebKit/537.36 (KHTML, like Gecko) Chrome/118.0.0.0 Safari/537.36" etag="v-siegwb26HM_hyUvFES" version="22.0.8" type="github">
  <diagram id="R2lEEEUBdFMjLlhIrx00" name="Page-1">
    <mxGraphModel dx="1728" dy="822" grid="1" gridSize="10" guides="1" tooltips="1" connect="1" arrows="1" fold="1" page="1" pageScale="1" pageWidth="850" pageHeight="1100" math="0" shadow="0" extFonts="Permanent Marker^https://fonts.googleapis.com/css?family=Permanent+Marker">
      <root>
        <mxCell id="0" />
        <mxCell id="1" parent="0" />
        <mxCell id="UUBswNinvHV-n9F3zUPU-14" style="edgeStyle=orthogonalEdgeStyle;rounded=0;orthogonalLoop=1;jettySize=auto;html=1;exitX=0.5;exitY=1;exitDx=0;exitDy=0;entryX=0.5;entryY=0;entryDx=0;entryDy=0;endArrow=none;endFill=0;" edge="1" parent="1" source="UUBswNinvHV-n9F3zUPU-1" target="UUBswNinvHV-n9F3zUPU-7">
          <mxGeometry relative="1" as="geometry" />
        </mxCell>
        <mxCell id="UUBswNinvHV-n9F3zUPU-20" style="edgeStyle=orthogonalEdgeStyle;rounded=0;orthogonalLoop=1;jettySize=auto;html=1;exitX=1;exitY=0.5;exitDx=0;exitDy=0;entryX=0;entryY=0.5;entryDx=0;entryDy=0;endArrow=none;endFill=0;" edge="1" parent="1" source="UUBswNinvHV-n9F3zUPU-1" target="UUBswNinvHV-n9F3zUPU-10">
          <mxGeometry relative="1" as="geometry" />
        </mxCell>
        <mxCell id="UUBswNinvHV-n9F3zUPU-22" style="edgeStyle=orthogonalEdgeStyle;rounded=0;orthogonalLoop=1;jettySize=auto;html=1;exitX=0;exitY=0.5;exitDx=0;exitDy=0;entryX=0.5;entryY=0;entryDx=0;entryDy=0;endArrow=none;endFill=0;" edge="1" parent="1" source="UUBswNinvHV-n9F3zUPU-1" target="UUBswNinvHV-n9F3zUPU-12">
          <mxGeometry relative="1" as="geometry" />
        </mxCell>
        <mxCell id="UUBswNinvHV-n9F3zUPU-1" value="读者" style="whiteSpace=wrap;html=1;align=center;" vertex="1" parent="1">
          <mxGeometry x="310" y="210" width="100" height="40" as="geometry" />
        </mxCell>
        <mxCell id="UUBswNinvHV-n9F3zUPU-2" value="读者类别" style="whiteSpace=wrap;html=1;align=center;" vertex="1" parent="1">
          <mxGeometry x="720" y="210" width="100" height="40" as="geometry" />
        </mxCell>
        <mxCell id="UUBswNinvHV-n9F3zUPU-16" style="edgeStyle=orthogonalEdgeStyle;rounded=0;orthogonalLoop=1;jettySize=auto;html=1;exitX=0.5;exitY=1;exitDx=0;exitDy=0;entryX=0.5;entryY=0;entryDx=0;entryDy=0;endArrow=none;endFill=0;" edge="1" parent="1" source="UUBswNinvHV-n9F3zUPU-3" target="UUBswNinvHV-n9F3zUPU-8">
          <mxGeometry relative="1" as="geometry" />
        </mxCell>
        <mxCell id="UUBswNinvHV-n9F3zUPU-18" style="edgeStyle=orthogonalEdgeStyle;rounded=0;orthogonalLoop=1;jettySize=auto;html=1;exitX=1;exitY=0.5;exitDx=0;exitDy=0;entryX=0;entryY=0.5;entryDx=0;entryDy=0;endArrow=none;endFill=0;" edge="1" parent="1" source="UUBswNinvHV-n9F3zUPU-3" target="UUBswNinvHV-n9F3zUPU-9">
          <mxGeometry relative="1" as="geometry" />
        </mxCell>
        <mxCell id="UUBswNinvHV-n9F3zUPU-3" value="图书借阅记录" style="whiteSpace=wrap;html=1;align=center;" vertex="1" parent="1">
          <mxGeometry x="310" y="400" width="100" height="40" as="geometry" />
        </mxCell>
        <mxCell id="UUBswNinvHV-n9F3zUPU-4" value="图书" style="whiteSpace=wrap;html=1;align=center;" vertex="1" parent="1">
          <mxGeometry x="720" y="400" width="100" height="40" as="geometry" />
        </mxCell>
        <mxCell id="UUBswNinvHV-n9F3zUPU-5" value="管理员" style="whiteSpace=wrap;html=1;align=center;" vertex="1" parent="1">
          <mxGeometry x="310" y="600" width="100" height="40" as="geometry" />
        </mxCell>
        <mxCell id="UUBswNinvHV-n9F3zUPU-26" style="edgeStyle=orthogonalEdgeStyle;rounded=0;orthogonalLoop=1;jettySize=auto;html=1;exitX=0.5;exitY=1;exitDx=0;exitDy=0;entryX=0.5;entryY=0;entryDx=0;entryDy=0;endArrow=none;endFill=0;" edge="1" parent="1" source="UUBswNinvHV-n9F3zUPU-6" target="UUBswNinvHV-n9F3zUPU-13">
          <mxGeometry relative="1" as="geometry" />
        </mxCell>
        <mxCell id="UUBswNinvHV-n9F3zUPU-30" style="edgeStyle=orthogonalEdgeStyle;rounded=0;orthogonalLoop=1;jettySize=auto;html=1;exitX=1;exitY=0.5;exitDx=0;exitDy=0;entryX=0;entryY=0.5;entryDx=0;entryDy=0;endArrow=none;endFill=0;" edge="1" parent="1" source="UUBswNinvHV-n9F3zUPU-6" target="UUBswNinvHV-n9F3zUPU-11">
          <mxGeometry relative="1" as="geometry" />
        </mxCell>
        <mxCell id="UUBswNinvHV-n9F3zUPU-6" value="个人违规记录" style="whiteSpace=wrap;html=1;align=center;" vertex="1" parent="1">
          <mxGeometry x="-90" y="400" width="100" height="40" as="geometry" />
        </mxCell>
        <mxCell id="UUBswNinvHV-n9F3zUPU-15" style="edgeStyle=orthogonalEdgeStyle;rounded=0;orthogonalLoop=1;jettySize=auto;html=1;exitX=0.5;exitY=1;exitDx=0;exitDy=0;entryX=0.5;entryY=0;entryDx=0;entryDy=0;endArrow=none;endFill=0;" edge="1" parent="1" source="UUBswNinvHV-n9F3zUPU-7" target="UUBswNinvHV-n9F3zUPU-3">
          <mxGeometry relative="1" as="geometry" />
        </mxCell>
        <mxCell id="UUBswNinvHV-n9F3zUPU-7" value="拥有" style="shape=rhombus;perimeter=rhombusPerimeter;whiteSpace=wrap;html=1;align=center;" vertex="1" parent="1">
          <mxGeometry x="300" y="300" width="120" height="60" as="geometry" />
        </mxCell>
        <mxCell id="UUBswNinvHV-n9F3zUPU-17" style="edgeStyle=orthogonalEdgeStyle;rounded=0;orthogonalLoop=1;jettySize=auto;html=1;exitX=0.5;exitY=1;exitDx=0;exitDy=0;entryX=0.5;entryY=0;entryDx=0;entryDy=0;endArrow=none;endFill=0;" edge="1" parent="1" source="UUBswNinvHV-n9F3zUPU-8" target="UUBswNinvHV-n9F3zUPU-5">
          <mxGeometry relative="1" as="geometry" />
        </mxCell>
        <mxCell id="UUBswNinvHV-n9F3zUPU-8" value="管理" style="shape=rhombus;perimeter=rhombusPerimeter;whiteSpace=wrap;html=1;align=center;" vertex="1" parent="1">
          <mxGeometry x="300" y="490" width="120" height="60" as="geometry" />
        </mxCell>
        <mxCell id="UUBswNinvHV-n9F3zUPU-19" style="edgeStyle=orthogonalEdgeStyle;rounded=0;orthogonalLoop=1;jettySize=auto;html=1;exitX=1;exitY=0.5;exitDx=0;exitDy=0;entryX=0;entryY=0.5;entryDx=0;entryDy=0;endArrow=none;endFill=0;" edge="1" parent="1" source="UUBswNinvHV-n9F3zUPU-9" target="UUBswNinvHV-n9F3zUPU-4">
          <mxGeometry relative="1" as="geometry" />
        </mxCell>
        <mxCell id="UUBswNinvHV-n9F3zUPU-9" value="包含" style="shape=rhombus;perimeter=rhombusPerimeter;whiteSpace=wrap;html=1;align=center;" vertex="1" parent="1">
          <mxGeometry x="500" y="390" width="120" height="60" as="geometry" />
        </mxCell>
        <mxCell id="UUBswNinvHV-n9F3zUPU-21" style="edgeStyle=orthogonalEdgeStyle;rounded=0;orthogonalLoop=1;jettySize=auto;html=1;exitX=1;exitY=0.5;exitDx=0;exitDy=0;entryX=0;entryY=0.5;entryDx=0;entryDy=0;endArrow=none;endFill=0;" edge="1" parent="1" source="UUBswNinvHV-n9F3zUPU-10" target="UUBswNinvHV-n9F3zUPU-2">
          <mxGeometry relative="1" as="geometry" />
        </mxCell>
        <mxCell id="UUBswNinvHV-n9F3zUPU-10" value="包含" style="shape=rhombus;perimeter=rhombusPerimeter;whiteSpace=wrap;html=1;align=center;" vertex="1" parent="1">
          <mxGeometry x="500" y="200" width="120" height="60" as="geometry" />
        </mxCell>
        <mxCell id="UUBswNinvHV-n9F3zUPU-25" style="edgeStyle=orthogonalEdgeStyle;rounded=0;orthogonalLoop=1;jettySize=auto;html=1;exitX=1;exitY=0.5;exitDx=0;exitDy=0;entryX=0;entryY=0.5;entryDx=0;entryDy=0;endArrow=none;endFill=0;" edge="1" parent="1" source="UUBswNinvHV-n9F3zUPU-11" target="UUBswNinvHV-n9F3zUPU-3">
          <mxGeometry relative="1" as="geometry" />
        </mxCell>
        <mxCell id="UUBswNinvHV-n9F3zUPU-11" value="包含" style="shape=rhombus;perimeter=rhombusPerimeter;whiteSpace=wrap;html=1;align=center;" vertex="1" parent="1">
          <mxGeometry x="100" y="390" width="120" height="60" as="geometry" />
        </mxCell>
        <mxCell id="UUBswNinvHV-n9F3zUPU-23" style="edgeStyle=orthogonalEdgeStyle;rounded=0;orthogonalLoop=1;jettySize=auto;html=1;exitX=0.5;exitY=1;exitDx=0;exitDy=0;entryX=0.5;entryY=0;entryDx=0;entryDy=0;endArrow=none;endFill=0;" edge="1" parent="1" source="UUBswNinvHV-n9F3zUPU-12" target="UUBswNinvHV-n9F3zUPU-6">
          <mxGeometry relative="1" as="geometry" />
        </mxCell>
        <mxCell id="UUBswNinvHV-n9F3zUPU-12" value="拥有" style="shape=rhombus;perimeter=rhombusPerimeter;whiteSpace=wrap;html=1;align=center;" vertex="1" parent="1">
          <mxGeometry x="-100" y="300" width="120" height="60" as="geometry" />
        </mxCell>
        <mxCell id="UUBswNinvHV-n9F3zUPU-27" style="edgeStyle=orthogonalEdgeStyle;rounded=0;orthogonalLoop=1;jettySize=auto;html=1;exitX=0.5;exitY=1;exitDx=0;exitDy=0;entryX=0;entryY=0.5;entryDx=0;entryDy=0;endArrow=none;endFill=0;" edge="1" parent="1" source="UUBswNinvHV-n9F3zUPU-13" target="UUBswNinvHV-n9F3zUPU-5">
          <mxGeometry relative="1" as="geometry" />
        </mxCell>
        <mxCell id="UUBswNinvHV-n9F3zUPU-13" value="管理" style="shape=rhombus;perimeter=rhombusPerimeter;whiteSpace=wrap;html=1;align=center;" vertex="1" parent="1">
          <mxGeometry x="-100" y="480" width="120" height="60" as="geometry" />
        </mxCell>
      </root>
    </mxGraphModel>
  </diagram>
</mxfile>
